<svg height="56" viewBox="0 0 56 56" width="56" xmlns="http://www.w3.org/2000/svg"><path d="m13.8811111 45.83c-.2016667-.0138889-.4038889-.025-.6055555-.0433333-1.13-.1061111-2.1661112-.4744445-3.0861112-1.1405556-1.58722218-1.1494444-2.60222218-2.6777778-3.00666662-4.6011111-.15111111-.7227778-.19333334-1.4522222-.14722222-2.1883333.05222222-.8638889.22444444-1.7016667.49888888-2.5211111.43833334-1.3077778 1.09944445-2.4944445 1.93611112-3.5883334.63055554-.8244444 1.34444444-1.5711111 2.13111114-2.2483333.7361111-.6344445 1.4044444-1.335 2.0305555-2.0766667.7877778-.935 1.5005556-1.9261111 2.2044445-2.9238889.6222222-.8822222 1.2338889-1.77 1.8944444-2.6227777.4966667-.6433334 1.0205556-1.2627778 1.6044445-1.8288889.7305555-.7072223 1.5366666-1.3061111 2.4866666-1.6944445.7127778-.2916666 1.4533334-.4461111 2.2238889-.4622222.8711111-.02 1.7316667.0661111 2.5788889.2733333 1.2966667.3183334 2.42.9488889 3.3872222 1.8666667.6616667.6305556 1.2216667 1.3438889 1.7422222 2.0905556.5522223.7916666 1.0594445 1.6122222 1.5827778 2.4233333.59.9133333 1.1988889 1.8122222 1.8794445 2.6622222.6777777.8472222 1.4255555 1.6288889 2.2422222 2.3438889.9877778.865 1.8644444 1.8277778 2.6111111 2.9088889.6366667.9272222 1.1555556 1.9133333 1.5177778 2.9788889.2822222.83.4594444 1.6788889.5044444 2.5561111.0694445 1.3322222-.1605555 2.6061111-.765 3.8044444-.5594444 1.1105556-1.3694444 2.0022223-2.3866666 2.7105556-.7477778.5205555-1.5544445.9161111-2.4427778 1.1361111-.3144445.0788889-.6338889.1355556-.9566667.1666667-.045.0044444-.0883333.0127777-.1316667.0194444-.0422222.0238889-.0888888.0061111-.1333333.0116667-.0366667.005-.0755555-.0116667-.1105555.0116666-.2755556 0-.5522223 0-.8277778 0-.0327778-.0238888-.07-.0072222-.105-.0116666-.0322222 0-.0627778 0-.0944445 0-.0261111 0-.0544444 0-.08 0-.7061111-.0227778-1.3916666-.17-2.075-.3283334-1.1577777-.27-2.2927777-.625-3.4444444-.9183333-.9327778-.2366667-1.8733333-.4288889-2.8305556-.5383333-.6633333-.0761111-1.3283333-.0844445-1.9916666-.0616667-.5305556.0177778-1.0572223.0994445-1.5788889.1966667-1.03.1938889-2.0394445.4711111-3.0494445.7466666-1.0683333.2933334-2.1366666.585-3.2305555.7638889-.445.0716667-.8905556.1333334-1.3427778.1288889-.0927778-.0011111-.185.0127778-.2788889.0105556-.1194444-.0066667-.2372222.0144444-.355-.0127778zm20.4094445-45.81c1.4888888.17888889 2.6261111.93555556 3.495 2.12888889.5955555.81833333.97 1.73611111 1.2022222 2.71722222.1983333.845.2733333 1.70277778.245 2.57055556-.0522222 1.59444444-.4266667 3.10888893-1.1188889 4.54555553-.4794445.9955556-1.0983333 1.8933334-1.8872222 2.6677778-.7027778.6883333-1.4977778 1.2383333-2.4255556 1.5811111-.6516667.2405556-1.3216667.3594445-2.0161111.3183333-1.2022222-.0694444-2.2227778-.5472222-3.0805556-1.3816666-.7311111-.7122222-1.2294444-1.5733334-1.5744444-2.5266667-.2411111-.6666667-.3916667-1.3538889-.47-2.0566667-.0544444-.4816666-.0761111-.96388884-.0605556-1.44611107.0355556-1.13833333.24-2.24666666.61-3.32277777.3927778-1.14555556.9494445-2.20166667 1.7094445-3.14611112.6394444-.79444444 1.3866667-1.46611111 2.2833333-1.96222222.6588889-.365 1.3605556-.60111111 2.1116667-.68611111.0227778-.01277778.0477778-.00722222.0711111-.00888889h.0711111c.0344445-.00444444.0711111.01222222.1016667-.01222222h.4877778c.0316666.025.0672222.00833333.1016666.01222222h.0716667c.0227778.00055556.0483333-.00555555.0716667.00777778zm-34.2455556 17.5805556c.02333333-.4544445.105-.9005556.22444444-1.3394445.23111112-.8527778.60944445-1.63 1.19888889-2.2955555.65888889-.7427778 1.47333334-1.2233334 2.44888889-1.4172223.79222222-.1566666 1.57388889-.0894444 2.34222222.1472223.88333334.2727777 1.66444445.7366666 2.35888889 1.3405555 1.07888889.935 1.85222227 2.0855556 2.38777777 3.4022222.28.6894445.4738889 1.4033334.5811111 2.1394445.0522222.3572222.0772222.7166666.0844445 1.0777778.0127777.6855555-.0561111 1.36-.2261111 2.0233333-.2266667.885-.6083334 1.6905555-1.2166667 2.38-.69833334.7911111-1.5688889 1.2833333-2.61222223 1.4527778-.76555556.1244444-1.51833334.0405555-2.255-.1972223-.99055556-.3216666-1.83944445-.8738888-2.58722223-1.5888888-.72944444-.6955556-1.30888888-1.5033334-1.76055555-2.4016667-.44277778-.8811111-.74833333-1.81-.89555556-2.7872222-.02555555-.1727778-.04666666-.3455556-.07-.5177778-.01833333-.0788889-.01111111-.1594445-.03-.2377778-.00888889-.0327778-.00388889-.0638889-.00555555-.0977778-.00611111-.0416666.01277778-.0861111-.01277778-.1277777 0-.2111112 0-.4216667 0-.6333334.03944444-.0577778.02-.1222222.02444444-.1838889.00333334-.0461111-.00833333-.095.02055556-.1377777zm10.4533333-10.15888893c.005-1.25722223.1838889-2.39111111.6044445-3.48222223.3172222-.825.7527778-1.57944444 1.3594444-2.22888888.6533334-.70111112 1.4294445-1.20388889 2.3655556-1.44055556.9361111-.23777778 1.8561111-.17 2.7605555.15722222.7966667.28888889 1.4916667.74444445 2.1088889 1.31944445.9855556.91666666 1.6911111 2.02333333 2.1938889 3.26388889.3194445.78888888.5394445 1.60444444.665 2.445.0711111.47666666.1122222.95722222.1222222 1.44111111.0105556.60888889-.0277777 1.21555553-.1283333 1.81666663-.2088889 1.2561111-.635 2.4261111-1.395 3.4605556-.4727778.6416667-1.0466667 1.1722222-1.7511111 1.5544444-.7872222.4266667-1.63.605-2.5216667.5361111-.8061111-.0616666-1.5494444-.325-2.2427778-.7361111-.9044444-.5355555-1.6366666-1.2577777-2.2461111-2.1077777-.7227777-1.0094445-1.2194444-2.1255556-1.5338889-3.325-.1722222-.65611116-.2822222-1.32333338-.3322222-2.00000004-.02-.25388889-.0372222-.50944445-.0288889-.67388889zm39.5005556 10.89555553v.1461111c-.0555556 1.2122223-.38 2.3533334-.9038889 3.4416667-.4122222.8527778-.9383333 1.63-1.5894444 2.3188889-.8355556.8855555-1.805 1.5761111-2.9577778 1.9905555-.6905556.2483334-1.4016667.3705556-2.1366667.33-1.085-.0611111-2.0322222-.4544444-2.8288889-1.1944444-.6577778-.6116667-1.0916666-1.3638889-1.365-2.2105556-.2461111-.7588888-.3455555-1.5411111-.3205555-2.3377777.0538889-1.7516667.6077777-3.3438889 1.5672222-4.8011111.3238889-.4933334.6955555-.9488889 1.1122222-1.3655556.8572222-.8538889 1.8372222-1.5105556 2.9977778-1.8827778.66-.21 1.3344444-.3061111 2.0255555-.2522222 1.0555556.0816667 1.9761112.4811111 2.7483334 1.2094444.6966666.6572223 1.1361111 1.4688889 1.4016666 2.38.1466667.5033334.2322223 1.0183334.2494445 1.5433334v.1472222c-.0055556.1788889-.005.3577778 0 .5372222z" fill-rule="evenodd" transform="translate(3 5)"/></svg>